<svg xmlns="http://www.w3.org/2000/svg" width="500" height="500" viewBox="0 0 500 500">
  <defs>
    <style>
      .cls-1 {
        fill-rule: evenodd;
      }
    </style>
  </defs>
  <path class="cls-1" d="M439.321,290.41l-87.633,97.435-10.653-9.573-76.645,68.48a12.615,12.615,0,0,1-17.6-18.043l-0.016-.016,50-53.183-58.5,50.056a12.632,12.632,0,0,1-17.2-18.48l22.808-23.642-30.458,26.887a12.62,12.62,0,0,1-17.553-18.1l-0.008-.008,30.269-32.059L188.834,394.06a12.644,12.644,0,0,1-17.828-17.9l55.987-61.285-67.1,62.211a12.637,12.637,0,0,1-17.828-17.895l55.388-59.482-60.376,55.127a12.637,12.637,0,0,1-17.523-18.2l59.963-64.217-66.9,60.259a12.644,12.644,0,0,1-17.281-18.456l40.82-43.437-44.455,39.86a12.613,12.613,0,0,1-17.648-17.989l-0.022-.016,49.939-53.407L68.347,283.3a12.639,12.639,0,0,1-16.433-19.187l53.4-53.587-55.31,40.4a12.632,12.632,0,0,1-16.722-18.789l0.078-.086,0.016-.024,65.324-70.2-63.6,45.553a12.665,12.665,0,0,1-16.559-19.016l39.708-50.11L37.97,154.065a12.616,12.616,0,0,1-17.906-17.453L64.052,75.4,81.638,88.05,125.711,53.7v0.008a12.607,12.607,0,0,1,17.655,17.749l-49.917,63,93.065-66.645,0.006,0.024a12.636,12.636,0,0,1,16.614,18.876l-61.246,65.812L220.652,95h0a12.632,12.632,0,0,1,16.433,19.085L221.421,129.8l19.508-15.455a12.647,12.647,0,0,1,20.5,10.267l77.292-69.289a12.63,12.63,0,0,1,18.17,17.545l-35.3,37.55,58.43-52.629V57.8a12.64,12.64,0,0,1,17.718,18l-43.1,46.144,56.025-51.16h0.008a12.635,12.635,0,0,1,17.756,17.95L394.867,124.79l38.175-35.4a12.64,12.64,0,0,1,18.169,17.562L372.885,192.7,453.5,119.454l0.016,0.008a12.632,12.632,0,0,1,17.7,18l-66.18,70.066,57.5-50.755A12.629,12.629,0,0,1,480.4,174.62l-57.87,60.019,34.176-29.267A12.636,12.636,0,0,1,474.3,223.478l-43.133,45.894a12.642,12.642,0,0,1,8.155,21.038h0Z"/>
</svg>
